# xmcd
#
# Track frame offsets:
#	150
#	4304
#	20700
#	29739
#	38360
#	54756
#	65352
#	83000
#	113796
#	120961
#	133080
#	150411
#	157004
#	165200
#	171926
#	184658
#	193445
#	198328
#	209945
#	217502
#	227473
#	235582
#	249226
#	261134
#	273629
#	288411
#	296506
#	306516
#	317349
#
# Disc length: 4402 seconds
#
# Revision: 1
# Processed by: cddbd v1.5.2PL0 Copyright (c) Steve Scherf et al.
# Submitted via: audiograbber 1.83.01
#
DISCID=8e11301d
DTITLE=Westwood - The Greatest - Classic Jointz Vol. 1-11 [CD1]
DYEAR=2006
DGENRE=Rap and Hip-Hop
TTITLE0=Crooklyn Clan - If Ya'll Don't Give a Fuck
TTITLE1=50 Cent - What Up Westwood
TTITLE2=The Diplomats Ft. Cam'ron and Juelz Santana - Dispet Anthem
TTITLE3=Juelz Santana Ft. Cam'ron - Dipset (Santana's Town)
TTITLE4=DMX - Party Up
TTITLE5=Joe Budden - Pump It Up
TTITLE6=Tony Yayo Ft. 50 Cent - So Seductive
TTITLE7=Terror Squad Ft. Fat Joe and Remy - Lean Back
TTITLE8=Lil Jon and The East Side Boyz - Get Low
TTITLE9=Lil Jon and The East Side Boyz Ft. Elephant Man and Busta Rhymes - Get Low 
TTITLE9=[Remix]
TTITLE10=N.O.R.E. - Nothin'
TTITLE11=Crooklyn Clan - Franklinz
TTITLE12=Fatman Scoop Ft. The Crooklyn Clan - Be Faithful
TTITLE13=Crooklyn Clan - Wanna Jump
TTITLE14=T.I. - What You Know
TTITLE15=Lil Jon Ft. E-40 and Sean Paul - Snap Yo Fingers
TTITLE16=Ying Yang Twins Ft. Pitbull - Shake
TTITLE17=Ying Yang Twins - Wait (The Whisper Song)
TTITLE18=David Banner - Play
TTITLE19=Ying Yang Twins Ft. Lil Jon and The East Side Boyz - Salt Shaker
TTITLE20=Lil Jon and The East Side Boyz Ft. Bo Hagon - Get Crunk
TTITLE21=Lil Jon and The East Side Boyz Ft. Lil Scrappy - What You Gonna Do
TTITLE22=Lil Jon and The East Side Boyz Ft. Mystikal and Krazie Bone - I Don't Give
TTITLE22=a F***
TTITLE23=Lil Jon and The East Side Boyz - Bia Bia
TTITLE24=Ludacris Ft. Shawnna - What's Your Fantasy
TTITLE25=Ludacris - Ho
TTITLE26=Ludacris Ft. Nate Dogg - Area Codes
TTITLE27=Ludacris Ft. Shawnna - Stand Up
TTITLE28=Busta Rhymes - Touch It
EXTD=
EXTT0=
EXTT1=
EXTT2=
EXTT3=
EXTT4=
EXTT5=
EXTT6=
EXTT7=
EXTT8=
EXTT9=
EXTT10=
EXTT11=
EXTT12=
EXTT13=
EXTT14=
EXTT15=
EXTT16=
EXTT17=
EXTT18=
EXTT19=
EXTT20=
EXTT21=
EXTT22=
EXTT23=
EXTT24=
EXTT25=
EXTT26=
EXTT27=
EXTT28=
PLAYORDER=
